<?xml version="1.0" standalone="no"?>
<!DOCTYPE svg PUBLIC "-//W3C//DTD SVG 20010904//EN"
 "http://www.w3.org/TR/2001/REC-SVG-20010904/DTD/svg10.dtd">
<svg version="1.0" xmlns="http://www.w3.org/2000/svg"
 width="832.000000pt" height="832.000000pt" viewBox="0 0 832.000000 832.000000"
 preserveAspectRatio="xMidYMid meet">
<metadata>
Created by potrace 1.14, written by Peter Selinger 2001-2017
</metadata>
<g transform="translate(0.000000,832.000000) scale(0.100000,-0.100000)"
fill="#000000" stroke="none">
<path d="M1160 7670 c-272 -24 -594 -89 -857 -174 -126 -41 -192 -81 -240
-144 -68 -90 -63 110 -61 -2607 l3 -2460 24 -53 c30 -67 114 -145 178 -166 91
-29 114 -29 249 3 348 80 475 95 819 96 216 0 311 -4 415 -18 631 -85 1185
-323 1690 -726 122 -98 328 -298 422 -409 126 -151 188 -207 248 -228 63 -21
146 -23 207 -5 60 17 116 63 202 166 41 50 142 158 225 241 281 280 546 470
901 644 462 227 864 324 1385 337 317 7 582 -21 870 -93 124 -31 196 -34 267
-10 69 23 144 91 180 164 l28 57 3 2460 c2 2717 7 2517 -61 2607 -18 24 -54
57 -80 75 -112 75 -538 186 -882 230 -198 25 -636 25 -830 0 -703 -91 -1282
-334 -1822 -765 -101 -81 -363 -333 -446 -430 l-37 -42 -37 42 c-81 95 -345
348 -448 431 -530 424 -1146 683 -1815 762 -161 19 -552 27 -700 15z m715
-659 c784 -126 1446 -526 1914 -1155 l51 -69 0 -1953 c0 -1075 -2 -1954 -5
-1954 -3 0 -50 36 -104 79 -494 393 -1108 673 -1721 785 -285 52 -394 61 -730
60 -296 0 -466 -11 -607 -40 l-33 -6 0 2085 0 2086 53 15 c88 25 287 64 387
75 52 6 109 13 125 15 17 2 145 3 285 1 198 -3 284 -8 385 -24z m5405 4 c121
-19 272 -50 348 -71 l52 -15 0 -2086 0 -2085 -36 6 c-226 43 -688 58 -961 32
-779 -75 -1497 -362 -2094 -837 -54 -43 -101 -79 -104 -79 -3 0 -5 879 -5
1954 l0 1953 51 69 c174 234 364 426 594 599 387 291 847 485 1320 554 195 29
200 29 480 26 170 -2 284 -9 355 -20z"/>
<path d="M1566 5939 c-219 -22 -398 -67 -459 -113 -130 -99 -170 -256 -102
-401 48 -101 165 -175 276 -175 27 0 107 12 177 27 112 23 149 26 307 26 208
-1 336 -23 510 -88 235 -87 370 -179 590 -400 152 -154 176 -174 225 -190 204
-68 408 64 427 275 11 113 -26 185 -179 353 -273 301 -687 545 -1083 637 -205
48 -502 69 -689 49z"/>
<path d="M1576 4340 c-205 -20 -416 -69 -481 -112 -209 -139 -185 -451 43
-556 77 -35 152 -35 317 2 114 25 151 29 295 29 252 1 450 -43 665 -148 174
-84 267 -154 450 -340 153 -154 176 -174 225 -190 204 -68 408 63 427 275 11
115 -31 195 -192 368 -272 292 -679 528 -1068 621 -200 47 -492 69 -681 51z"/>
<path d="M6415 5944 c-284 -29 -481 -77 -700 -171 -276 -118 -564 -327 -768
-558 -116 -133 -142 -185 -142 -290 0 -67 4 -89 28 -137 73 -148 238 -216 397
-163 49 16 73 36 225 190 220 221 355 313 590 400 173 65 302 87 510 88 167 1
191 -2 335 -32 172 -37 210 -36 296 3 64 30 122 86 154 151 33 68 35 198 4
266 -27 58 -76 114 -128 144 -49 29 -201 68 -346 90 -105 15 -379 27 -455 19z"/>
<path d="M6415 4344 c-22 -2 -78 -9 -125 -15 -465 -57 -908 -276 -1250 -619
-142 -142 -205 -225 -226 -298 -58 -200 98 -407 306 -406 30 1 80 9 110 19 49
16 72 36 225 190 183 186 276 256 450 340 215 105 413 149 665 148 140 0 185
-4 295 -27 201 -43 286 -29 385 60 62 57 94 133 94 229 1 63 -4 91 -22 130
-27 58 -81 117 -137 150 -46 26 -176 59 -320 80 -100 15 -375 27 -450 19z"/>
</g>
</svg>
